<svg xmlns="http://www.w3.org/2000/svg" viewBox="0 0 499 97.96"><defs><style>.cls-1{fill:#fff;}</style></defs><g id="Layer_2" data-name="Layer 2"><g id="Layer_1-2" data-name="Layer 1"><path class="cls-1" d="M33.09,65.73l.3,0-.07,0-.23.09Z"/><path class="cls-1" d="M50.87,40.06V58l-.86.28-1.49.46c-1,.31-2,.6-3,.87-.78.23-1.58.45-2.46.68l-1.27.34c-.93.24-1.92.48-2.92.72-1.49.36-3,.7-4.59,1l-1.21.25V33.92Z"/><path class="cls-1" d="M65.33,36.06V52.68l-.5.21-1.92.78-1,.38-.94.37c-.65.25-1.31.51-2,.75l-1,.37-1,.36-.86.3-.2.08-.92.32-1,.35-2,.67-.68.22V40.06Z"/><polygon class="cls-1" points="50.87 39.52 33.09 33.38 33.09 20.36 50.87 26.5 50.87 39.52"/><polygon class="cls-1" points="51.42 39.52 51.42 26.51 65.33 22.5 65.33 35.6 51.42 39.52"/><path class="cls-1" d="M18.72,54.91l-.42-1,.2.47C18.57,54.54,18.64,54.73,18.72,54.91Z"/><path class="cls-1" d="M20.74,59.37l-.26-.56-.27-.56C20.38,58.62,20.56,59,20.74,59.37Z"/><path class="cls-1" d="M84.17,36.41a42.2,42.2,0,0,1-.79,6.71c-.82.61-1.7,1.23-2.62,1.83l-.21.13-.21.13q-2,1.27-4.31,2.51c.12-.4.25-.79.37-1.19a35.86,35.86,0,0,0,1.43-16.47A29.12,29.12,0,0,0,49.37,6a27.54,27.54,0,0,0-4.13.31C34.69,7.83,27.06,13.64,22.56,23.53,19.9,29.4,19.45,35.88,21.2,43.35A69.38,69.38,0,0,0,29,62.28c.19.33.37.66.57,1l-.76.12c-1.1.17-2.16.3-3.19.41-.86.08-1.69.14-2.51.18q-1.3-2.36-2.41-4.6l-.26-.55-.27-.57c-.19-.39-.37-.79-.55-1.18l-.37-.84a1.47,1.47,0,0,1-.1-.22l-.47-1.1c-.08-.18-.15-.37-.22-.55l-.2-.47c-.81-2-1.5-4.06-2.09-6.07q-.45-1.56-.81-3.12c-2.06-8.79-1.48-16.52,1.74-23.63A36.14,36.14,0,0,1,28,7.05,35.16,35.16,0,0,1,44.37.37,34.43,34.43,0,0,1,69.85,6.72,34.8,34.8,0,0,1,83.47,27.85c.08.39.16.79.23,1.2A35.1,35.1,0,0,1,84.17,36.41Z"/><path class="cls-1" d="M39.83,64.55l1.28-.68Z"/><path class="cls-1" d="M58.05,51.85h0l-.13.12Z"/><path class="cls-1" d="M33.39,65.7l-.07,0-.23.09v-.09Z"/><path class="cls-1" d="M70.41,67.68l-.3.11-.18.07c-.81.31-1.67.63-2.54.94l-3,1-.06,0-.19.06-.8.27-.65.21-.91.3h0c-.9.28-1.79.57-2.68.83l-.92.28-1.05.32-1.95.56-.89.25-.9.24q-1,.27-1.92.51v.06l-1.37.29-.83.2-.17,0-.61.14-.12,0-.57.14-.87.19-1.05.24a1,1,0,0,1-.17,0l-1,.21-1.11.23c-1.22.25-2.46.48-3.7.7l-1.57.26c-.54.09-1.08.18-1.62.25q-2.52.39-5,.66L34.46,81l0,0c3,3.87,6.24,7.74,9.83,11.66l.36.39.54.58,1.06,1.1.68.72L49.29,98l2.14-2.58,2.64-3.19,0,0L67.57,75.39A87.57,87.57,0,0,0,74,66.28C72.79,66.76,71.61,67.22,70.41,67.68Z"/><path class="cls-1" d="M81.41,39.82A17.92,17.92,0,0,1,80.76,45l-.21.13-.21.13q-2,1.27-4.31,2.51c.12-.4.25-.79.37-1.19a35.86,35.86,0,0,0,1.43-16.47A29.12,29.12,0,0,0,49.37,6a27.54,27.54,0,0,0-4.13.31C34.69,7.83,27.06,13.64,22.56,23.53,19.9,29.4,19.45,35.88,21.2,43.35A69.38,69.38,0,0,0,29,62.28c.19.33.37.66.57,1l-.76.12c-1.1.17-2.16.3-3.19.41a86.21,86.21,0,0,1-4.18-9.07c-.18-.46-.35-.92-.53-1.39-4.1-11.11-6.89-26.46,2.32-37.89C39.12-4.27,62.61,6,62.61,6S76.3,10.33,80.32,28a43.39,43.39,0,0,1,1.06,8.2Q81.46,37.95,81.41,39.82Z"/><polygon class="cls-1" points="51 25.97 64.93 22.09 47.17 16.23 33.09 19.84 51 25.97"/><path class="cls-1" d="M98.58,30.76A41.32,41.32,0,0,0,88.5,29.4c-1.06,0-2.12,0-3.16,0a37.63,37.63,0,0,1,.43,5.73c3.56.82,4.63,2.69,2.76,5.22A18.8,18.8,0,0,1,84.87,44l-.06,0-.39.3-.1.07-.29.22c-.55.4-1.11.8-1.67,1.18l-.26.16-.71.48h0l-.21.13-1,.66h0L79,47.85l-1.19.67-.5.27-.57.31-.57.31-.57.29-.22.12-.78.39-.46.23-.77.37-.11.06-.56.26-.62.29-.06,0h0c-1.25.59-2.52,1.15-3.81,1.7l-.87.37-.79.34-.17.07-1,.4-1.93.78-1,.39-1,.37-2,.76-1,.37-1,.36-.85.31-.23.08-.92.32-1,.35-2,.68-2.1.67L49,60.25c-1,.3-2,.6-3,.88l-2.49.69L43,62l-.77.21c-1,.25-2,.5-3,.73-1.52.36-3.07.71-4.63,1-.83.17-1.67.34-2.51.49l-1.56.29-.69.11-.09,0-.37,0-.12,0-.18,0h0c-.54.08-1.09.16-1.64.22s-1.09.14-1.62.19l-1.41.12-.55,0-.63,0H23l-.79,0c-.71,0-1.42,0-2.13,0A23.24,23.24,0,0,1,15.44,65c-2.17-.51-3.29-1.7-2.89-3.15a8.6,8.6,0,0,1,1.64-3.08,21.32,21.32,0,0,1,3.17-3l-.09-.22c-.08-.17-.15-.37-.23-.57l-.19-.45c-.56-1.42-1.08-2.85-1.54-4.28a56.78,56.78,0,0,0-9.93,7.61C2.88,60.29.76,62.92.14,66.11a5.79,5.79,0,0,0,1.36,5.2c2,2.31,5,3.47,8.43,4.19a57.83,57.83,0,0,0,16.33.8,126,126,0,0,0,13.36-1.63c1.22-.21,2.45-.44,3.66-.69l1.09-.22,1-.21.11,0c.36-.08.72-.15,1.08-.24l.85-.19L48,73l0,0,.65-.15.15,0,.84-.21,1.25-.32,2-.53.89-.24.38-.11.51-.14,1.93-.56,1-.31.92-.28c.87-.26,1.76-.54,2.65-.83l1-.31.64-.2c.26-.1.53-.18.79-.27l.25-.08,2-.68.69-.24.33-.12c.83-.3,1.68-.61,2.51-.93l.48-.18.91-.35,1.09-.43,1.51-.6.46-.2q5.9-2.43,11.33-5.31a71,71,0,0,0,16-11c2.64-2.55,4.91-5.26,5.57-8.58C107.52,35.66,104.59,32.43,98.58,30.76Zm-9.91,1.9L86,32.33l0-.22,2.68.2Zm-75.74,22-1.88,1.9L11,56.5ZM6.57,63.21a6.09,6.09,0,0,0-.42,2.54l-.54,0a6.67,6.67,0,0,1,.54-2.74,14.38,14.38,0,0,1,1.31-2.41l.3.19A12.91,12.91,0,0,0,6.57,63.21Zm7.88,7.92A18.64,18.64,0,0,1,9.07,70l.27-.67a18.36,18.36,0,0,0,5.18,1Zm5.45.14,0-1,5.35-.46.11,1.09Zm10.83-1-.17-1.17,5.31-.89.22,1.21Zm10.69-1.89-.27-1.26,5.23-1.27.33,1.29ZM52,65.72l-.4-1.32,5.12-1.67.46,1.35Zm10.28-3.54-.51-1.3,5-2.06.56,1.25Zm9.92-4.45-.6-1.19L76.31,54l.63,1.13Zm9.47-5.33L81,51.33l4.57-2.84.64.95Zm8.95-6.18-.63-.81a36.42,36.42,0,0,0,4-3.49l.66.63A37.06,37.06,0,0,1,90.57,46.22Zm6.84-8.51-.76-.1A2.59,2.59,0,0,0,96,35.4,6.44,6.44,0,0,0,93.85,34l.22-.52A6.73,6.73,0,0,1,96.46,35a3.37,3.37,0,0,1,.79,1.26A3.48,3.48,0,0,1,97.41,37.71Z"/><path class="cls-1" d="M33.09,65.73l.3,0-.07,0-.23.09Z"/><path class="cls-1" d="M125,55.94V17h7V55.94Z"/><path class="cls-1" d="M176.48,17.06V56l-6.95-5.34-25-19.3V56h-6.95V17.17l6.95,5.34,25,19.3V17Z"/><path class="cls-1" d="M220.93,17.06v7H205V56h-7V24h-16v-7Z"/><path class="cls-1" d="M233.5,27.52v3.61h25v7h-25v7.34A3.58,3.58,0,0,0,237.06,49h28.42v7H237.06a10.49,10.49,0,0,1-10.45-10.52V27.52A10.49,10.49,0,0,1,237.06,17h28.42v7H237.06A3.58,3.58,0,0,0,233.5,27.52Z"/><path class="cls-1" d="M302.47,49,306,56h-7.78l-3.56-7L291,41.75l-.17-.33a6.89,6.89,0,0,0-5.89-3.34H278V56h-7V17.06h24.59A10.41,10.41,0,0,1,303,20.12a10.57,10.57,0,0,1-3.05,17,9.42,9.42,0,0,1-3,.83Zm-6.89-17.91A3.24,3.24,0,0,0,297,30.8a3.55,3.55,0,0,0,2.12-3.23A3.67,3.67,0,0,0,298.08,25a3.53,3.53,0,0,0-2.5-1H278v7.18Z"/><path class="cls-1" d="M341.52,27.79v-.22A3.58,3.58,0,0,0,338,24H322.17a3.58,3.58,0,0,0-3.56,3.56v.22a3.58,3.58,0,0,0,3.56,3.56h14a12.22,12.22,0,0,1,9.07,4c.17.16.28.33.44.5a12.28,12.28,0,0,1-9.51,20.08H324a12.3,12.3,0,0,1-12.29-12.29h7A5.34,5.34,0,0,0,324,49h12.18a5.34,5.34,0,1,0,0-10.67h-14a10.42,10.42,0,0,1-7.29-3,9.86,9.86,0,0,1-1.33-1.67,10.33,10.33,0,0,1-1.84-5.95v-.22A10.49,10.49,0,0,1,322.17,17H338a10.55,10.55,0,0,1,10.52,10.52v.22Z"/><path class="cls-1" d="M391.08,17.06v7h-16V56h-6.95V24h-16v-7Z"/><path class="cls-1" d="M423.24,55.94h-7.79l-3.56-7L403.38,32.3,394.87,49l-3.56,7h-7.79l3.56-7,16.3-32,16.3,32Z"/><path class="cls-1" d="M454.44,17.06v7h-16V56h-7V24h-16v-7Z"/><path class="cls-1" d="M467,27.52v3.61h25v7H467v7.34A3.58,3.58,0,0,0,470.58,49H499v7H470.58a10.49,10.49,0,0,1-10.46-10.52V27.52A10.49,10.49,0,0,1,470.58,17H499v7H470.58A3.58,3.58,0,0,0,467,27.52Z"/><path class="cls-1" d="M124.4,82.7v-16H131a7.6,7.6,0,0,1,5,1.52,5.13,5.13,0,0,1,1.82,4.17,5.12,5.12,0,0,1-3.17,5A8.92,8.92,0,0,1,131,78h-4.92l1.3-1.33v6Zm3-5.67-1.3-1.45h4.78a4.49,4.49,0,0,0,3-.84,3,3,0,0,0,1-2.36,2.91,2.91,0,0,0-1-2.34,4.49,4.49,0,0,0-3-.84h-4.78l1.3-1.46Zm7.5,5.67-4-5.81H134l4.07,5.81Z"/><path class="cls-1" d="M147.52,82.7v-16H159.2V69.2h-8.71v11h9V82.7Zm2.74-6.91V73.34h8v2.45Z"/><path class="cls-1" d="M169.26,82.7v-16h2.45l7,11.68h-1.28l6.88-11.68h2.45l0,16H184V71.1h.57l-5.81,9.79h-1.35l-6-9.79h.69V82.7Z"/><path class="cls-1" d="M205,82.92a9.47,9.47,0,0,1-3.44-.61,8.16,8.16,0,0,1-2.75-1.74A7.94,7.94,0,0,1,197,78a8.67,8.67,0,0,1,0-6.54,7.8,7.8,0,0,1,1.81-2.61,8.49,8.49,0,0,1,2.74-1.72,9.93,9.93,0,0,1,6.88,0,8,8,0,0,1,2.74,1.71A7.69,7.69,0,0,1,213,71.4a8.29,8.29,0,0,1,.64,3.29A8.17,8.17,0,0,1,213,78a7.79,7.79,0,0,1-1.79,2.62,8,8,0,0,1-2.74,1.73A9.54,9.54,0,0,1,205,82.92Zm0-2.6a6,6,0,0,0,2.23-.41A5.51,5.51,0,0,0,209,78.74,5.4,5.4,0,0,0,210.18,77a6,6,0,0,0,.43-2.27,6.14,6.14,0,0,0-.41-2.26A5.18,5.18,0,0,0,209,70.65a5.24,5.24,0,0,0-1.79-1.17,5.79,5.79,0,0,0-2.23-.41,6,6,0,0,0-2.25.41A5.08,5.08,0,0,0,201,70.66a5.56,5.56,0,0,0-1.19,1.78,5.95,5.95,0,0,0,0,4.49,5.54,5.54,0,0,0,1.19,1.8,5.22,5.22,0,0,0,1.79,1.18A6.2,6.2,0,0,0,205,80.32Z"/><path class="cls-1" d="M227.44,82.7l-7-16h3.22l6.25,14.47H228l6.36-14.47h3l-7,16Z"/><path class="cls-1" d="M242.71,82.7l7.2-16h2.93l7.23,16h-3.14l-6.17-14.43H252l-6.2,14.43ZM246,79l.82-2.33h8.62l.8,2.33Z"/><path class="cls-1" d="M268.48,82.7v-16h3V80.18h8.37V82.7Z"/><path class="cls-1" d="M288.58,82.7v-16h3v16Z"/><path class="cls-1" d="M307.22,82.92a12.07,12.07,0,0,1-3.58-.53A7.93,7.93,0,0,1,300.91,81l1-2.31A8.24,8.24,0,0,0,304.31,80a8.56,8.56,0,0,0,2.91.5,6.35,6.35,0,0,0,2-.27,2.47,2.47,0,0,0,1.15-.74,1.73,1.73,0,0,0,.36-1.07,1.45,1.45,0,0,0-.52-1.17,3.89,3.89,0,0,0-1.36-.71A17.88,17.88,0,0,0,307,76c-.68-.15-1.35-.33-2-.54a9,9,0,0,1-1.87-.81,4,4,0,0,1-1.36-1.32,3.94,3.94,0,0,1-.51-2.1,4.28,4.28,0,0,1,.7-2.39,4.84,4.84,0,0,1,2.12-1.74,8.87,8.87,0,0,1,3.63-.65,11.17,11.17,0,0,1,2.86.37,8.26,8.26,0,0,1,2.47,1l-.94,2.31a9,9,0,0,0-2.22-1,8.22,8.22,0,0,0-2.2-.31,5.63,5.63,0,0,0-2,.3,2.46,2.46,0,0,0-1.13.79,1.83,1.83,0,0,0-.35,1.08,1.49,1.49,0,0,0,.51,1.18,3.74,3.74,0,0,0,1.35.7c.56.17,1.18.33,1.87.48s1.36.33,2,.53a8.85,8.85,0,0,1,1.85.81,3.62,3.62,0,0,1,1.88,3.37,4.23,4.23,0,0,1-.7,2.36,4.72,4.72,0,0,1-2.14,1.74A8.73,8.73,0,0,1,307.22,82.92Z"/><path class="cls-1" d="M326.06,82.7V69.2h-5.31V66.69h13.59V69.2H329V82.7Z"/><path class="cls-1" d="M347.6,82.92a12.12,12.12,0,0,1-3.58-.53A7.93,7.93,0,0,1,341.29,81l1-2.31A8,8,0,0,0,344.69,80a8.56,8.56,0,0,0,2.91.5,6.26,6.26,0,0,0,2-.27,2.47,2.47,0,0,0,1.15-.74,1.73,1.73,0,0,0,.36-1.07,1.45,1.45,0,0,0-.52-1.17,3.8,3.8,0,0,0-1.36-.71A17.88,17.88,0,0,0,347.4,76c-.67-.15-1.35-.33-2-.54a8.71,8.71,0,0,1-1.86-.81,3.69,3.69,0,0,1-1.88-3.42,4.28,4.28,0,0,1,.7-2.39,4.81,4.81,0,0,1,2.13-1.74,8.81,8.81,0,0,1,3.62-.65,11.17,11.17,0,0,1,2.86.37,8.15,8.15,0,0,1,2.47,1l-.94,2.31a9,9,0,0,0-2.22-1,8.2,8.2,0,0,0-2.19-.31,5.6,5.6,0,0,0-2,.3,2.44,2.44,0,0,0-1.14.79,1.83,1.83,0,0,0-.35,1.08,1.49,1.49,0,0,0,.51,1.18,3.74,3.74,0,0,0,1.35.7c.56.17,1.18.33,1.87.48s1.36.33,2,.53a9.17,9.17,0,0,1,1.86.81,3.94,3.94,0,0,1,1.36,1.3,3.83,3.83,0,0,1,.51,2.07,4.23,4.23,0,0,1-.7,2.36,4.66,4.66,0,0,1-2.14,1.74A8.73,8.73,0,0,1,347.6,82.92Z"/></g></g></svg>